<svg width="898" height="692" viewBox="0 0 898 692" fill="none" xmlns="http://www.w3.org/2000/svg">
<path d="M241.901 304.329C233.41 307.509 222.494 312.348 215 317.25C215 318.231 218.008 323.249 218.504 324.13C220.323 327.363 221.523 331.013 222.956 334.396C227.653 345.483 232.831 356.458 237.394 367.617C243.87 368.595 250.082 370.238 256.501 371.427C262.684 372.572 267.233 372.865 272.955 375.442C282.872 379.908 293.483 382.328 303.528 386.493C305.532 387.324 312.421 387.977 313.545 389.625C315.236 392.102 311.47 382.142 311.132 381.447C308.344 375.72 305.42 369.254 301.638 364.022C299.81 361.494 297.234 359.519 295.523 356.912C293.443 353.745 292.492 350.1 291.218 346.635C288.039 337.985 280.996 330.206 278.667 321.437C278.274 319.958 277.711 304.045 277.711 302.604C277.709 302.604 277.707 302.603 277.705 302.603C277.667 302.596 277.63 302.589 277.593 302.582C270.483 301.239 263.172 301.259 255.812 301.279C255.7 301.279 255.589 301.279 255.478 301.28C254.699 301.282 253.919 301.284 253.139 301.284C249.215 301.284 245.47 302.993 241.901 304.329Z" fill="white"/>
<path d="M175.033 362.123C174.368 366.255 174.02 370.346 173.895 374.5C180.325 380.668 197.515 391.104 204.449 396.783C213.629 404.303 222.12 413.026 231.915 419.872C234.94 421.986 238.638 422.868 242.376 422.868C245.473 422.868 248.754 423.313 251.763 423.949C254.257 424.476 255.757 425.495 256.645 422.721C258.131 418.078 255.324 411.966 253.748 407.738C250.089 397.918 245.19 388.598 241.678 378.755C240.344 375.015 238.902 371.306 237.394 367.617C232.831 356.458 227.653 345.483 222.956 334.396C221.523 331.013 220.323 327.363 218.504 324.13C218.008 323.249 215 318.231 215 317.25C213.76 318.872 206.978 324.411 205.101 325.477C201.302 327.633 197.985 330.582 194.667 333.288C189.712 337.327 184.651 341.385 180.478 346.134C179.236 347.547 177.568 349.177 176.83 350.899C175.404 354.225 175.596 358.619 175.033 362.123Z" fill="white"/>
<path d="M287.15 305.385C284.054 304.1 280.903 303.214 277.711 302.604C277.711 304.045 278.274 319.958 278.667 321.437C280.996 330.206 288.039 337.985 291.218 346.635C292.492 350.1 293.443 353.745 295.523 356.912C297.234 359.519 299.81 361.494 301.638 364.022C305.42 369.254 308.344 375.72 311.132 381.447C311.47 382.142 315.236 392.102 313.545 389.625C312.421 387.977 305.532 387.324 303.528 386.493C293.483 382.328 282.872 379.908 272.955 375.442C267.233 372.865 262.684 372.572 256.501 371.427C250.082 370.238 243.87 368.595 237.394 367.617C238.902 371.306 240.344 375.015 241.678 378.755C245.19 388.598 250.089 397.918 253.748 407.738C255.324 411.966 258.131 418.078 256.645 422.721C255.757 425.495 254.257 424.476 251.763 423.949C248.754 423.313 245.473 422.868 242.376 422.868C238.638 422.868 234.94 421.986 231.915 419.872C222.12 413.026 213.629 404.303 204.449 396.783C197.515 391.104 180.325 380.668 173.895 374.5C173.894 374.546 173.892 374.592 173.891 374.638C173.874 375.238 173.861 375.84 173.852 376.443C173.668 389.798 173.758 403.172 173.826 416.528C173.867 424.599 174.302 432.655 175.059 440.697C175.431 444.638 175.95 448.156 177.769 451.749C183.448 462.972 188.922 474.403 195.713 485.104C200.708 492.977 207.436 499.28 215.079 504.999C222.479 510.538 230.132 517.221 238.575 521.407C242.953 523.577 248.03 524.44 252.71 525.902C256.479 527.079 260.189 528.598 264.11 529.316C271.121 530.6 278.897 529.856 285.997 529.856C296.717 529.856 308.37 530.764 318.667 527.621C323.788 526.057 328.415 525.348 333.687 524.649C340.927 523.689 347.804 519.776 354.957 518.189C360.554 516.948 366.537 516.044 372.204 517.477C373.617 517.834 374.741 518.739 376.227 518.803C382.368 519.067 386.937 518.314 390.604 513.277C391.374 512.219 392.607 511.238 392.911 509.961C393.198 508.755 393.24 507.605 393.716 506.424C396.301 499.997 397.861 493.312 400.341 486.824C401.365 484.145 401.413 481.23 401.601 478.424C401.952 473.211 402.191 467.901 402.191 462.679V443.939C402.191 430.757 397.631 417.055 391.731 405.131C388.768 399.142 384.84 393.938 381.109 388.38C373.524 377.08 365.061 366.644 355.869 356.376C343.971 343.083 333.29 329.607 317.111 320.344C307.728 314.971 297.303 309.6 287.15 305.385Z" fill="#B00A0A"/>
<path fill-rule="evenodd" clip-rule="evenodd" d="M124.208 566.403C141.402 589.903 186.25 658.739 208.64 677.961C208.64 677.961 353.502 656.422 440 622.5C524.069 589.53 642 509.961 642 509.961C641 507.461 615 450.5 613.679 445.467C611 438.5 605.5 429.354 600.985 423.364C591.935 411.358 582.485 401.993 570.352 392.693C558.795 383.835 549.35 371.945 538.885 362.023C517.665 341.903 494.41 324.394 467.07 311.596C431.383 294.89 393.352 283.379 356.16 270.01C291.193 246.659 221.6 228.206 151.265 228.206C130.518 228.206 110.217 230.674 89.5227 231.208C70.4743 231.699 51.5152 232.377 32.4287 232.136C29.3478 232.097 14.0255 227.65 13.0489 231.755C13.0221 231.907 13.0056 232.052 13 232.19V251.564C13 268.063 15.1618 284.001 17.887 300.354C20.9755 318.886 25.8883 336.997 28.674 355.583C31.0148 371.199 34.2842 386.983 38.8651 402.189C42.9196 415.648 47.3186 428.854 54.122 441.374C61.8658 455.623 66.9565 470.653 74.0274 485.142C87.8914 513.551 105.351 540.631 124.208 566.403ZM215 317.25C222.494 312.348 233.41 307.509 241.901 304.329C245.47 302.993 249.215 301.284 253.139 301.284C253.919 301.284 254.699 301.282 255.478 301.28L255.812 301.279C263.172 301.259 270.483 301.239 277.593 302.582L277.705 302.603L277.711 302.604C280.903 303.214 284.054 304.1 287.15 305.385C297.303 309.6 307.728 314.971 317.111 320.344C333.29 329.607 343.971 343.083 355.869 356.376C365.061 366.644 373.524 377.08 381.109 388.38C384.84 393.938 388.768 399.142 391.731 405.131C397.631 417.055 402.191 430.757 402.191 443.939V462.679C402.191 467.901 401.952 473.211 401.601 478.424C401.413 481.23 401.365 484.145 400.341 486.824C397.861 493.312 396.301 499.997 393.716 506.424C393.24 507.605 393.198 508.755 392.911 509.961C392.607 511.238 391.374 512.219 390.604 513.277C386.937 518.314 382.368 519.067 376.227 518.803C374.741 518.739 373.617 517.834 372.204 517.477C366.537 516.044 360.554 516.948 354.957 518.189C347.804 519.776 340.927 523.689 333.687 524.649C328.415 525.348 323.788 526.057 318.667 527.621C308.37 530.764 296.717 529.856 285.997 529.856C278.897 529.856 271.121 530.6 264.11 529.316C260.189 528.598 256.479 527.079 252.71 525.902C248.03 524.44 242.953 523.577 238.575 521.407C230.132 517.221 222.479 510.538 215.079 504.999C207.436 499.28 200.708 492.977 195.713 485.104C188.922 474.403 183.448 462.972 177.769 451.749C175.95 448.156 175.431 444.638 175.059 440.697C174.302 432.655 173.867 424.599 173.826 416.528C173.758 403.172 173.668 389.798 173.852 376.443C173.861 375.84 173.874 375.238 173.891 374.638L173.895 374.5C174.02 370.346 174.368 366.255 175.033 362.123C175.596 358.619 175.404 354.225 176.83 350.899C177.568 349.177 179.236 347.547 180.478 346.134C184.651 341.385 189.712 337.327 194.667 333.288C197.985 330.582 201.302 327.633 205.101 325.477C206.63 324.608 212.286 319.858 215 317.25Z" fill="#D3D3D3"/>
<path d="M32.4287 232.136C51.5152 232.377 70.4743 231.699 89.5227 231.208C110.217 230.674 130.518 228.206 151.265 228.206C221.6 228.206 291.193 246.659 356.16 270.01C393.352 283.379 431.383 294.89 467.07 311.596C494.41 324.394 517.665 341.903 538.885 362.023C549.35 371.945 558.795 383.835 570.352 392.693C582.485 401.993 591.935 411.358 600.985 423.364C605.5 429.354 611 438.5 613.679 445.467C615 450.5 641 507.461 642 509.961C642 509.961 746.337 388.905 799.5 302C836.324 241.804 883 141.754 883 141.754C872.128 128.48 852.97 117.602 837.527 109.774C817.263 99.5013 796.464 92.9319 775.01 85.27C749.706 76.2332 724.716 66.5687 699.322 57.71C669.41 47.2756 640.066 35.768 608.734 29.3314C586.083 24.6781 563.169 20.4584 540.317 16.7247C512.571 12.1914 484.708 13.0682 456.642 13.0682C432.7 13.0682 409.823 15.5633 386.199 19.0714C353.394 23.9427 322.424 30.0516 290.724 39.4822C269.755 45.7202 248.52 51.4351 227.849 58.474C192.423 70.5373 155.234 85.2714 124.329 105.408C106.57 116.979 92.1458 130.523 78.3797 145.957C60.5297 165.969 43.254 186.609 29.7484 209.372C26.5936 213.867 13.9523 226.635 13.0489 231.755C14.0255 227.65 29.3478 232.097 32.4287 232.136Z" fill="#52517E"/>
<path d="M215 317.25C222.494 312.348 233.41 307.509 241.901 304.329C245.47 302.993 249.215 301.284 253.139 301.284C253.919 301.284 254.699 301.282 255.478 301.28M215 317.25C213.76 318.872 206.978 324.411 205.101 325.477M215 317.25C215 318.231 218.008 323.249 218.504 324.13C220.323 327.363 221.523 331.013 222.956 334.396C227.653 345.483 232.831 356.458 237.394 367.617M215 317.25C212.286 319.858 206.63 324.608 205.101 325.477M287.15 305.385C297.303 309.6 307.728 314.971 317.111 320.344C333.29 329.607 343.971 343.083 355.869 356.376C365.061 366.644 373.524 377.08 381.109 388.38C384.84 393.938 388.768 399.142 391.731 405.131C397.631 417.054 402.191 430.757 402.191 443.939V462.679C402.191 467.901 401.952 473.211 401.601 478.424C401.413 481.23 401.365 484.144 400.341 486.824C397.861 493.312 396.301 499.997 393.716 506.424C393.24 507.605 393.198 508.755 392.911 509.961C392.607 511.238 391.374 512.219 390.604 513.277C386.937 518.314 382.368 519.067 376.227 518.803C374.741 518.739 373.617 517.834 372.204 517.477C366.537 516.044 360.554 516.948 354.957 518.189C347.804 519.776 340.927 523.689 333.687 524.649C328.415 525.348 323.788 526.057 318.667 527.621C308.37 530.764 296.717 529.856 285.997 529.856C278.897 529.856 271.121 530.6 264.11 529.316C260.189 528.598 256.479 527.079 252.71 525.902C248.03 524.44 242.953 523.577 238.575 521.407C230.132 517.221 222.479 510.538 215.079 504.999C207.436 499.28 200.708 492.977 195.713 485.104C188.922 474.403 183.448 462.972 177.769 451.749C175.95 448.156 175.431 444.638 175.059 440.697C174.302 432.655 173.867 424.599 173.826 416.528C173.758 403.172 173.668 389.798 173.852 376.443C173.861 375.84 173.874 375.238 173.891 374.638M287.15 305.385C284.054 304.1 280.903 303.214 277.711 302.604M287.15 305.385C284.052 304.099 280.898 303.213 277.705 302.603M175.033 362.123C175.596 358.619 175.404 354.225 176.83 350.899C177.568 349.177 179.236 347.547 180.478 346.134C184.651 341.385 189.712 337.327 194.667 333.288C197.985 330.582 201.302 327.633 205.101 325.477M175.033 362.123C174.368 366.255 174.02 370.346 173.895 374.5M175.033 362.123C174.361 366.3 174.012 370.437 173.891 374.638M173.895 374.5C180.325 380.668 197.515 391.104 204.449 396.783C213.629 404.303 222.12 413.026 231.915 419.872C234.94 421.986 238.638 422.868 242.376 422.868C245.473 422.868 248.754 423.313 251.763 423.949C254.257 424.476 255.757 425.495 256.645 422.721C258.131 418.078 255.324 411.966 253.748 407.738C250.089 397.918 245.19 388.598 241.678 378.755C240.344 375.015 238.902 371.306 237.394 367.617M173.895 374.5C173.894 374.546 173.892 374.592 173.891 374.638M173.895 374.5L173.891 374.638M13 232.19V251.564C13 268.063 15.1618 284.001 17.887 300.354C20.9755 318.886 25.8883 336.997 28.674 355.583C31.0148 371.199 34.2842 386.983 38.8651 402.189C42.9196 415.648 47.3186 428.854 54.122 441.374C61.8658 455.623 66.9565 470.653 74.0274 485.142C87.8914 513.551 105.351 540.631 124.208 566.403C141.402 589.903 186.25 658.739 208.64 677.961C208.64 677.961 353.502 656.422 440 622.5C524.069 589.53 642 509.961 642 509.961M13 232.19C13.0056 232.052 13.0221 231.907 13.0489 231.755M13 232.19C13 232.036 13.0166 231.891 13.0489 231.755M642 509.961C641 507.461 615 450.5 613.679 445.467C611 438.5 605.5 429.354 600.985 423.364C591.935 411.358 582.485 401.993 570.352 392.693C558.795 383.835 549.35 371.945 538.885 362.023C517.665 341.903 494.41 324.394 467.07 311.596C431.383 294.89 393.352 283.379 356.16 270.01C291.193 246.659 221.6 228.206 151.265 228.206C130.518 228.206 110.217 230.674 89.5227 231.208C70.4743 231.699 51.5152 232.377 32.4287 232.136C29.3478 232.097 14.0255 227.65 13.0489 231.755M642 509.961C642 509.961 746.337 388.905 799.5 302C836.324 241.804 883 141.754 883 141.754C872.128 128.48 852.97 117.602 837.527 109.774C817.263 99.5013 796.464 92.9319 775.01 85.27C749.706 76.2332 724.716 66.5687 699.322 57.71C669.41 47.2756 640.066 35.768 608.734 29.3314C586.083 24.6781 563.169 20.4584 540.317 16.7247C512.571 12.1914 484.708 13.0682 456.642 13.0682C432.7 13.0682 409.823 15.5633 386.199 19.0714C353.394 23.9427 322.424 30.0516 290.724 39.4822C269.755 45.7202 248.52 51.4351 227.849 58.474C192.423 70.5373 155.234 85.2714 124.329 105.408C106.57 116.979 92.1458 130.523 78.3797 145.957C60.5297 165.969 43.254 186.609 29.7484 209.372C26.5936 213.867 13.9523 226.635 13.0489 231.755M450.68 177.124C448.38 177.124 443.136 178.041 442.098 176.141M236.226 367.448C236.616 367.502 237.006 367.558 237.394 367.617M277.711 302.604C277.711 304.045 278.274 319.958 278.667 321.437C280.996 330.206 288.039 337.985 291.218 346.635C292.492 350.1 293.443 353.745 295.523 356.912C297.234 359.519 299.81 361.494 301.638 364.022C305.42 369.254 308.344 375.72 311.132 381.447C311.47 382.142 315.236 392.101 313.545 389.625C312.421 387.977 305.532 387.324 303.528 386.493C293.483 382.328 282.872 379.908 272.955 375.442C267.233 372.865 262.684 372.572 256.501 371.427C250.082 370.238 243.87 368.595 237.394 367.617M277.711 302.604L277.705 302.603M277.711 302.604C277.709 302.604 277.707 302.603 277.705 302.603M255.478 301.28C255.589 301.279 255.7 301.279 255.812 301.279M255.478 301.28L255.812 301.279M255.812 301.279C263.172 301.259 270.483 301.239 277.593 302.582M277.593 302.582L277.705 302.603M277.593 302.582C277.63 302.589 277.667 302.596 277.705 302.603" stroke="black" stroke-width="25" stroke-linecap="round"/>
</svg>
