<svg width="214" height="289" viewBox="0 0 214 289" fill="none" xmlns="http://www.w3.org/2000/svg">
<path d="M68.6058 223.371C68.6058 223.371 57.5682 229.79 76.4608 231.962C99.3487 234.573 111.046 234.198 136.269 229.424C136.269 229.424 142.9 233.582 152.161 237.184C95.6189 261.417 24.1947 235.78 68.6058 223.371Z" fill="#5382A1"/>
<path d="M61.6965 191.748C61.6965 191.748 49.3168 200.912 68.2234 202.868C92.6729 205.39 111.981 205.596 145.392 199.163C145.392 199.163 150.013 203.848 157.28 206.41C88.9167 226.4 12.7725 207.986 61.6965 191.748Z" fill="#5382A1"/>
<path d="M119.943 138.106C133.875 154.146 116.283 168.58 116.283 168.58C116.283 168.58 151.658 150.318 135.412 127.45C120.238 106.123 108.602 95.5273 171.596 58.9932C171.596 58.9932 72.7163 83.6887 119.943 138.106Z" fill="#F8981D"/>
<path d="M194.725 246.761C194.725 246.761 202.893 253.491 185.729 258.698C153.092 268.585 49.8907 271.57 21.2217 259.092C10.9159 254.608 30.2422 248.386 36.3215 247.081C42.6616 245.706 46.2847 245.962 46.2847 245.962C34.8236 237.888 -27.7949 261.816 14.4776 268.668C129.761 287.364 224.628 260.249 194.725 246.761Z" fill="#5382A1"/>
<path d="M73.9136 158.984C73.9136 158.984 21.4186 171.452 55.3238 175.98C69.6396 177.896 98.1779 177.463 124.76 175.235C146.485 173.403 168.3 169.507 168.3 169.507C168.3 169.507 160.639 172.787 155.097 176.571C101.789 190.591 -1.19132 184.069 28.4555 169.728C53.5278 157.609 73.9136 158.984 73.9136 158.984Z" fill="#5382A1"/>
<path d="M168.083 211.621C222.273 183.462 197.218 156.401 179.729 160.047C175.443 160.939 173.532 161.712 173.532 161.712C173.532 161.712 175.123 159.219 178.162 158.14C212.76 145.977 239.367 194.014 166.994 213.04C166.994 213.04 167.832 212.291 168.083 211.621Z" fill="#5382A1"/>
<path d="M135.412 0C135.412 0 165.423 30.0213 106.948 76.1855C60.0562 113.217 96.2549 134.332 106.928 158.456C79.5568 133.76 59.47 112.021 72.9458 91.7874C92.7251 62.0868 147.521 47.687 135.412 0Z" fill="#F8981D"/>
<path d="M79.2384 287.926C131.254 291.255 211.129 286.078 213.021 261.466C213.021 261.466 209.385 270.796 170.033 278.206C125.637 286.561 70.8804 285.585 38.4038 280.231C38.4038 280.231 45.0522 285.733 79.2384 287.926Z" fill="#5382A1"/>
</svg>
